<svg width="72" height="72" viewBox="0 0 72 72" fill="none" xmlns="http://www.w3.org/2000/svg">
<path d="M52.4927 35.9865C61.6054 35.9865 68.9927 43.3738 68.9927 52.4865C68.9927 61.5991 61.6054 68.9865 52.4927 68.9865C43.38 68.9865 35.9927 61.5991 35.9927 52.4865C35.9927 43.3738 43.38 35.9865 52.4927 35.9865ZM52.4927 41.9842L52.223 42.0083C51.6108 42.1195 51.128 42.6022 51.0168 43.2145L50.9927 43.4842L50.9916 50.9842L43.4856 50.9865L43.216 51.0106C42.6037 51.1218 42.1209 51.6045 42.0098 52.2168L41.9856 52.4865L42.0098 52.7561C42.1209 53.3684 42.6037 53.8512 43.216 53.9623L43.4856 53.9865L50.9946 53.9842L50.996 61.4969L51.0202 61.7665C51.1313 62.3788 51.6141 62.8616 52.2264 62.9727L52.496 62.9969L52.7656 62.9727C53.3779 62.8616 53.8607 62.3788 53.9718 61.7665L53.996 61.4969L53.9946 53.9842L61.5064 53.9865L61.776 53.9623C62.3883 53.8512 62.8711 53.3684 62.9822 52.7561L63.0064 52.4865L62.9822 52.2168C62.8711 51.6045 62.3883 51.1218 61.776 51.0106L61.5064 50.9865L53.9916 50.9842L53.9927 43.4842L53.9685 43.2145C53.8574 42.6022 53.3746 42.1195 52.7623 42.0083L52.4927 41.9842ZM36.0585 41.9858C35.1683 43.3761 34.4497 44.8869 33.9326 46.4882L27.7427 46.4865C27.3285 46.4865 26.9927 46.8222 26.9927 47.2365V50.2365C26.9927 53.1678 28.8285 54.8708 33.2 55.3632C33.4411 56.9709 33.8751 58.5151 34.4804 59.9701C26.8188 59.5584 22.4927 56.3058 22.4927 50.2365V47.2365C22.4927 44.337 24.8432 41.9865 27.7427 41.9865L36.0585 41.9858ZM24.3707 26.9867C24.1239 27.9455 23.9927 28.9506 23.9927 29.9865C23.9927 30.4938 24.0242 30.9937 24.0853 31.4845L11.2427 31.4865C10.8285 31.4865 10.4927 31.8222 10.4927 32.2365V35.2365C10.4927 38.765 13.1527 40.5136 19.693 40.5136C21.0788 40.5136 22.282 40.4368 23.3157 40.2814C21.6202 41.3556 20.349 43.0333 19.7963 45.011L19.693 45.0136C10.9663 45.0136 5.99268 41.7441 5.99268 35.2365V32.2365C5.99268 29.4819 8.11401 27.2229 10.8121 27.0039L11.2427 26.9865L24.3707 26.9867ZM35.9927 20.9865C40.9632 20.9865 44.9927 25.0159 44.9927 29.9865C44.9927 34.957 40.9632 38.9865 35.9927 38.9865C31.0221 38.9865 26.9927 34.957 26.9927 29.9865C26.9927 25.0159 31.0221 20.9865 35.9927 20.9865ZM60.7427 26.9865C63.6422 26.9865 65.9927 29.337 65.9927 32.2365L65.9895 35.1227C66.0484 36.2292 65.9588 37.2436 65.7272 38.1656C64.4589 36.9929 63.0379 35.9888 61.4959 35.1848L61.4927 32.2365C61.4927 31.8222 61.1569 31.4865 60.7427 31.4865L47.9001 31.4841C47.9612 30.9935 47.9927 30.4936 47.9927 29.9865C47.9927 28.9506 47.8614 27.9455 47.6147 26.9867L60.7427 26.9865ZM35.9927 25.4865C33.5074 25.4865 31.4927 27.5012 31.4927 29.9865C31.4927 32.4717 33.5074 34.4865 35.9927 34.4865C38.478 34.4865 40.4927 32.4717 40.4927 29.9865C40.4927 27.5012 38.478 25.4865 35.9927 25.4865ZM19.4927 5.98645C24.4632 5.98645 28.4927 10.0159 28.4927 14.9865C28.4927 19.957 24.4632 23.9865 19.4927 23.9865C14.5221 23.9865 10.4927 19.957 10.4927 14.9865C10.4927 10.0159 14.5221 5.98645 19.4927 5.98645ZM52.4927 5.98645C57.4632 5.98645 61.4927 10.0159 61.4927 14.9865C61.4927 19.957 57.4632 23.9865 52.4927 23.9865C47.5221 23.9865 43.4927 19.957 43.4927 14.9865C43.4927 10.0159 47.5221 5.98645 52.4927 5.98645ZM19.4927 10.4865C17.0074 10.4865 14.9927 12.5012 14.9927 14.9865C14.9927 17.4717 17.0074 19.4865 19.4927 19.4865C21.978 19.4865 23.9927 17.4717 23.9927 14.9865C23.9927 12.5012 21.978 10.4865 19.4927 10.4865ZM52.4927 10.4865C50.0074 10.4865 47.9927 12.5012 47.9927 14.9865C47.9927 17.4717 50.0074 19.4865 52.4927 19.4865C54.978 19.4865 56.9927 17.4717 56.9927 14.9865C56.9927 12.5012 54.978 10.4865 52.4927 10.4865Z" fill="white"/>
</svg>
