<svg width="72" height="72" viewBox="0 0 72 72" fill="none" xmlns="http://www.w3.org/2000/svg">
<path d="M42 30C42 28.3431 40.6569 27 39 27H37.5C28.3873 27 21 34.3872 21 43.5C21 52.6128 28.3873 60 37.5 60H52.5C61.6128 60 69 52.6128 69 43.5C69 36.0273 64.0323 29.7146 57.219 27.6847C55.5294 27.1813 54 28.5866 54 30.3498V30.5049C54 31.9977 55.1235 33.2205 56.5035 33.7902C60.3165 35.364 63 39.1185 63 43.5C63 49.299 58.299 54 52.5 54H37.5C31.701 54 27 49.299 27 43.5C27 37.701 31.701 33 37.5 33H39C40.6569 33 42 31.6569 42 30Z" fill="white"/>
<path d="M34.5 12C43.6128 12 51 19.3873 51 28.5C51 37.6128 43.6128 45 34.5 45H33C31.3431 45 30 43.6569 30 42C30 40.3431 31.3431 39 33 39H34.5C40.299 39 45 34.299 45 28.5C45 22.701 40.299 18 34.5 18H19.5C13.701 18 9 22.701 9 28.5C9 32.8815 11.6835 36.636 15.4966 38.2098C16.8764 38.7792 18 40.0023 18 41.4951V41.6502C18 43.4133 16.4707 44.8188 14.781 44.3154C7.96776 42.2853 3 35.9727 3 28.5C3 19.3873 10.3873 12 19.5 12H34.5Z" fill="white"/>
</svg>
