<svg width="72" height="72" viewBox="0 0 72 72" fill="none" xmlns="http://www.w3.org/2000/svg">
<g clip-path="url(#clip0_36_1239)">
<path opacity="0.84" d="M31.7929 1.9329L31.7194 1.93931L31.6485 1.95956C25.429 3.7347 20.6903 6.72424 17.507 10.9687C14.3991 15.1125 12.8271 20.3814 12.734 26.7183C8.18415 29.2031 4.68351 32.147 2.43936 35.8247C0.122276 39.622 -0.812112 44.1309 -0.26633 49.5768L-0.262826 49.6117L-0.256154 49.6462C1.69664 59.7414 8.30626 67.1343 18.3628 69.5094L18.3867 69.515L18.4109 69.5191C24.028 70.4729 29.309 69.5416 34.2224 66.7282L34.6209 66.5L34.6096 66.041C34.5964 65.506 34.4617 65.0015 34.2202 64.531C37.0943 66.839 40.6977 68.4928 45.0029 69.5094L45.0569 69.5221L45.1122 69.527C51.8957 70.1253 57.5339 68.9491 61.951 65.9103C66.3685 62.8713 69.4669 58.0367 71.3011 51.5083L71.3159 51.4558L71.3231 51.4017C72.0203 46.1696 71.4386 41.5084 69.5345 37.4503C67.6301 33.3916 64.4298 29.9938 59.9848 27.2451L59.3518 26.8537L58.9391 27.4729L58.2192 28.5528L58.0575 28.7953C58.577 25.9086 58.5538 22.8052 57.9993 19.4928L57.9905 19.4407L57.9747 19.3902C55.9956 13.0615 52.8231 8.37912 48.4097 5.43684C43.9969 2.49493 38.435 1.35381 31.7929 1.9329ZM31.3981 61.7799C31.8076 62.2657 32.2397 62.7314 32.6942 63.177C32.6441 63.1642 32.5934 63.1529 32.542 63.1432L32.2622 63.0907L32.0156 63.2327C30.142 64.3116 28.1346 65.0596 25.9899 65.477C20.9315 65.9555 16.7011 65.1524 13.2498 63.1272C9.80237 61.1044 7.05891 57.8193 5.04692 53.2012C3.92823 49.2055 3.85904 45.5499 4.80025 42.2129C5.74215 38.8734 7.71087 35.8001 10.7505 32.9949C12.1051 31.9988 13.4596 31.1798 14.8146 30.5348C14.6492 30.6745 14.494 30.8326 14.3489 31.0063L14.0628 31.3487L14.2177 31.7672C16.4735 37.8633 20.5171 42.2602 26.3201 44.9203C26.2141 45.5743 26.1255 46.2336 26.0542 46.8979L26.0471 46.9638L26.0515 47.03C26.4441 53.0589 28.2083 57.996 31.3981 61.7799ZM21.8458 28.7355C25.2973 28.6028 28.819 29.5586 32.4221 31.6518C29.8969 34.288 28.0555 37.3472 26.902 40.8221C22.7448 38.4869 19.846 35.0597 18.1829 30.5154L18.0591 30.1769L17.7198 30.0552C17.2797 29.8974 16.8346 29.8256 16.3953 29.8614C18.2107 29.1783 20.0272 28.8055 21.8458 28.7355ZM56.7292 33.3058C57.09 32.4462 57.3932 31.5634 57.6389 30.6576L57.7446 30.7208C59.9009 32.0105 61.8052 33.6222 63.4593 35.559C66.6063 40.4977 67.8537 45.1297 67.3134 49.4811C66.7734 53.8287 64.4344 58.0131 60.1819 62.0323C56.5526 64.3872 52.9473 65.5694 49.3562 65.6264C46.0169 65.6794 42.6391 64.7601 39.2139 62.8312C43.4183 58.3137 45.4282 52.8874 45.2294 46.5957L45.2059 45.85H44.4598H44.4549H44.45H44.4451H44.4401H44.4352H44.4303H44.4254H44.4205H44.4155H44.4106H44.4057H44.4008H44.3959H44.3909H44.386H44.3811H44.3762H44.3712H44.3663H44.3614H44.3565H44.3516H44.3466H44.3417H44.3368H44.3319H44.327H44.322H44.3171H44.3122H44.3073H44.3023H44.2974H44.2925H44.2876H44.2827H44.2777H44.2728H44.2679H44.263H44.2581H44.2531H44.2482H44.2433H44.2384H44.2334H44.2285H44.2236H44.2187H44.2138H44.2088H44.2039H44.199H44.1941H44.1892H44.1842H44.1793H44.1744H44.1695H44.1645H44.1596H44.1547H44.1498H44.1449H44.1399H44.135H44.1301H44.1252H44.1203H44.1153H44.1104H44.1055H44.1006H44.0956H44.0907H44.0858H44.0809H44.076H44.071H44.0661H44.0612H44.0563H44.0513H44.0464H44.0415H44.0366H44.0317H44.0267H44.0218H44.0169H44.012H44.007H44.0021H43.9972H43.9923H43.9874H43.9824H43.9775H43.9726H43.9677H43.9628H43.9578H43.9529H43.948H43.9431H43.9381H43.9332H43.9283H43.9234H43.9185H43.9135H43.9086H43.9037H43.8988H43.8938H43.8889H43.884H43.8791H43.8742H43.8692H43.8643H43.8594H43.8545H43.8495H43.8446H43.8397H43.8348H43.8299H43.8249H43.82H43.8151H43.8102H43.8053H43.8003H43.7954H43.7905H43.7856H43.7806H43.7757H43.7708H43.7659H43.761H43.756H43.7511H43.7462H43.7413H43.7363H43.7314H43.7265H43.7216H43.7167H43.7117H43.7068H43.7019H43.697H43.692H43.6871H43.6822H43.6773H43.6724H43.6674H43.6625H43.6576H43.6527H43.6477H43.6428H43.6379H43.633H43.6281H43.6231H43.6182H43.6133H43.6084H43.6034H43.5985H43.5936H43.5887H43.5838H43.5788H43.5739H43.569H43.5641H43.5591H43.5542H43.5493H43.5444H43.5395H43.5345H43.5296H43.5247H43.5198H43.5148H43.5099H43.505H43.5001H43.4952H43.4902H43.4853H43.4804H43.4755H43.4706H43.4656H43.4607H43.4558H43.4509H43.4459H43.441H43.4361H43.4312H43.4263H43.4214C44.8822 45.3404 46.3168 44.6793 47.7247 43.8669L47.7522 43.8511L47.7783 43.833C52.0129 40.8999 55.0128 37.3938 56.7292 33.3058ZM30.9924 46.6558C34.5032 47.3405 37.8967 47.292 41.1658 46.5116L41.1703 46.6456C41.3478 51.9826 39.5636 56.4124 35.8014 59.9905C33.7327 58.1458 32.2456 55.8951 31.3339 53.2269C30.6447 50.8812 30.3338 48.6533 30.3922 46.5387L30.9924 46.6558ZM31.6288 42.6209L30.9842 42.5113C31.7841 39.5982 33.3919 36.8839 35.8392 34.3687C38.1293 36.5773 39.7251 39.2151 40.6321 42.2943C37.6616 43.0277 34.6626 43.1364 31.6288 42.6209ZM32.715 5.98133C37.4614 5.58693 41.4799 6.35423 44.8116 8.23365C48.1529 10.1185 50.8677 13.1581 52.9357 17.4127C53.9489 19.9266 54.3727 22.4999 54.2097 25.1407C47.6912 23.6729 41.6024 24.7685 35.9909 28.4217C30.1547 24.7773 23.8718 23.6748 17.1852 25.1205C17.4373 20.1864 18.795 16.1882 21.21 13.0756C23.7737 9.77122 27.5847 7.39299 32.715 5.98133ZM39.1926 31.4462C41.4201 30.0546 43.8025 29.1298 46.3435 28.6673C48.7885 28.5754 51.2035 28.7571 53.5902 29.2124C52.151 34.3774 49.1089 38.2281 44.4349 40.8016C43.483 37.2272 41.734 34.1052 39.1926 31.4462Z" fill="white" stroke="white" stroke-width="1.54"/>
</g>
<defs>
<clipPath id="clip0_36_1239">
<rect width="72" height="72" fill="white"/>
</clipPath>
</defs>
</svg>
