<svg width="42" height="36" viewBox="0 0 42 36" fill="none" xmlns="http://www.w3.org/2000/svg">
<path d="M0 11.735C0.142686 2.58333 7.19684 -1.85766 15.4179 0.729365C21.6129 2.67881 24.526 8.80743 21.8212 15.0738C21.0321 11.4899 18.8117 10.2596 15.6931 10.6381C12.2974 11.0503 10.4454 14.0303 11.431 17.3147C12.7263 21.6314 16.431 24.8371 20.5248 25.1837C25.3676 25.5938 28.9403 23.6853 31.0385 19.5676C33.0766 15.5677 32.4585 9.85953 29.5072 6.65734C27.9815 5.00184 26.2636 3.52509 24.6368 1.97176C29.7726 -1.30141 35.7088 -0.404643 39.789 4.27807C42.7875 7.71933 42.806 14.7374 39.4161 18.4348C34.3228 23.9902 28.9426 29.2797 23.7014 34.6988C21.9794 36.4792 19.3801 36.3279 17.8812 34.8797C12.62 29.7966 7.41748 24.6324 2.51883 19.202C0.0919793 16.1272 0.0133416 12.5929 0 11.735Z" fill="#0C21C1"/>
</svg>
