<svg width="36" height="36" viewBox="0 0 36 36" fill="none" xmlns="http://www.w3.org/2000/svg">
<path opacity="0.984" fill-rule="evenodd" clip-rule="evenodd" d="M16.4531 0C17.4844 0 18.5156 0 19.5469 0C26.5968 0.881775 31.6242 4.53802 34.6289 10.9688C35.3528 12.7395 35.8099 14.5676 36 16.4531C36 17.4844 36 18.5156 36 19.5469C35.2202 25.9954 32.0093 30.8119 26.3672 33.9961C24.2106 35.0916 21.9371 35.7595 19.5469 36C18.5156 36 17.4844 36 16.4531 36C10.0046 35.2202 5.18815 32.0093 2.00391 26.3672C0.908466 24.2106 0.240496 21.9371 0 19.5469C0 18.5156 0 17.4844 0 16.4531C0.881775 9.40317 4.53802 4.37583 10.9688 1.37109C12.7395 0.647151 14.5676 0.19012 16.4531 0ZM17.2969 4.35938C21.3815 4.22642 24.1589 6.05455 25.6289 9.84375C26.0535 11.0293 26.3348 12.248 26.4727 13.5C26.5551 14.8117 26.6254 16.1241 26.6836 17.4375C26.8865 19.6401 27.5662 21.6792 28.7227 23.5547C28.8044 23.8954 28.699 24.1649 28.4062 24.3633C26.4059 24.9673 24.3668 25.3774 22.2891 25.5938C22.3035 26.6888 22.7254 27.5912 23.5547 28.3008C24.0009 28.5943 24.4696 28.8521 24.9609 29.0742C26.2254 29.5114 27.4676 30.0035 28.6875 30.5508C23.7795 34.5087 18.3185 35.493 12.3047 33.5039C10.4503 32.8235 8.78625 31.8391 7.3125 30.5508C8.53235 30.0035 9.77456 29.5114 11.0391 29.0742C12.1581 28.7049 12.9667 27.9901 13.4648 26.9297C13.6148 26.4964 13.6968 26.0511 13.7109 25.5938C11.6332 25.3774 9.59414 24.9673 7.59375 24.3633C7.30104 24.1649 7.19557 23.8954 7.27734 23.5547C8.43377 21.6792 9.11348 19.6401 9.31641 17.4375C9.37463 16.1241 9.44494 14.8117 9.52734 13.5C9.72991 11.1332 10.5268 9.00035 11.918 7.10156C13.3333 5.45053 15.1263 4.53646 17.2969 4.35938Z" fill="#0C21C1"/>
</svg>
